<?xml version="1.0" encoding="UTF-8" standalone="no"?>
<!DOCTYPE svg PUBLIC "-//W3C//DTD SVG 1.1//EN"
 "http://www.w3.org/Graphics/SVG/1.1/DTD/svg11.dtd">
<!-- Generated by graphviz version 2.40.1 (20161225.0304)
 -->
<!-- Title: G Pages: 1 -->
<svg width="729pt" height="878pt"
 viewBox="0.00 0.00 728.51 878.00" xmlns="http://www.w3.org/2000/svg" xmlns:xlink="http://www.w3.org/1999/xlink">
<g id="graph0" class="graph" transform="scale(1 1) rotate(0) translate(4 874)">
<title>G</title>
<polygon fill="#ffffff" stroke="transparent" points="-4,4 -4,-874 724.5145,-874 724.5145,4 -4,4"/>
<!-- A0 -->
<g id="node1" class="node">
<title>A0</title>
<polygon fill="#fff8dc" stroke="#000000" points="185.1837,-870 75.7133,-870 75.7133,-834 191.1837,-834 191.1837,-864 185.1837,-870"/>
<polyline fill="none" stroke="#000000" points="185.1837,-870 185.1837,-864 "/>
<polyline fill="none" stroke="#000000" points="191.1837,-864 185.1837,-864 "/>
<text text-anchor="middle" x="133.4485" y="-855" font-family="Helvetica,sans-Serif" font-size="10.00" fill="#000000">Token Bridge Class</text>
<text text-anchor="middle" x="133.4485" y="-843" font-family="Helvetica,sans-Serif" font-size="10.00" fill="#000000">Diagram!</text>
</g>
<!-- A1 -->
<g id="node2" class="node">
<title>A1</title>
<polygon fill="none" stroke="#000000" points="282.0019,-870 208.8951,-870 208.8951,-834 282.0019,-834 282.0019,-870"/>
<text text-anchor="middle" x="245.4485" y="-849" font-family="Helvetica,sans-Serif" font-size="10.00" fill="#000000">Wormhole</text>
</g>
<!-- A2 -->
<g id="node3" class="node">
<title>A2</title>
<polygon fill="none" stroke="#000000" points="311.4485,-752 311.4485,-784 407.4485,-784 407.4485,-752 311.4485,-752"/>
<text text-anchor="start" x="323.609" y="-765" font-family="Helvetica,sans-Serif" font-size="10.00" fill="#000000">ERC1967Proxy </text>
<polygon fill="none" stroke="#000000" points="311.4485,-708 311.4485,-752 407.4485,-752 407.4485,-708 311.4485,-708"/>
<text text-anchor="start" x="321.116" y="-733" font-family="Helvetica,sans-Serif" font-size="10.00" fill="#000000"> constructor(impl,</text>
<text text-anchor="start" x="348.056" y="-721" font-family="Helvetica,sans-Serif" font-size="10.00" fill="#000000">data)</text>
</g>
<!-- A1&#45;&gt;A2 -->
<g id="edge1" class="edge">
<title>A1&#45;&gt;A2</title>
<path fill="none" stroke="#000000" d="M272.692,-826.6683C286.3631,-813.9566 303.2079,-798.2939 318.4064,-784.162"/>
<polygon fill="none" stroke="#000000" points="269.9859,-824.4053 265.0458,-833.778 274.7525,-829.5317 269.9859,-824.4053"/>
</g>
<!-- A3 -->
<g id="node4" class="node">
<title>A3</title>
<polygon fill="none" stroke="#000000" points="179.5736,-764 125.3234,-764 125.3234,-728 179.5736,-728 179.5736,-764"/>
<text text-anchor="middle" x="152.4485" y="-743" font-family="Helvetica,sans-Serif" font-size="10.00" fill="#000000">Setup</text>
</g>
<!-- A1&#45;&gt;A3 -->
<g id="edge2" class="edge">
<title>A1&#45;&gt;A3</title>
<path fill="none" stroke="#000000" d="M221.3017,-824.4778C204.6594,-805.5092 183.0045,-780.8273 168.4622,-764.2522"/>
<polygon fill="#000000" stroke="#000000" points="221.335,-824.5158 228.2989,-826.388 229.2491,-833.5362 222.2853,-831.6641 221.335,-824.5158"/>
</g>
<!-- A4 -->
<g id="node5" class="node">
<title>A4</title>
<polygon fill="none" stroke="#000000" points="293.7951,-764 197.1019,-764 197.1019,-728 293.7951,-728 293.7951,-764"/>
<text text-anchor="middle" x="245.4485" y="-743" font-family="Helvetica,sans-Serif" font-size="10.00" fill="#000000">Implementation</text>
</g>
<!-- A1&#45;&gt;A4 -->
<g id="edge3" class="edge">
<title>A1&#45;&gt;A4</title>
<path fill="none" stroke="#000000" d="M245.4485,-821.3105C245.4485,-802.8287 245.4485,-779.919 245.4485,-764.2522"/>
<polygon fill="#000000" stroke="#000000" points="245.4486,-821.5362 249.4485,-827.5362 245.4485,-833.5362 241.4485,-827.5362 245.4486,-821.5362"/>
</g>
<!-- A5 -->
<g id="node6" class="node">
<title>A5</title>
<polygon fill="none" stroke="#000000" points="182.1234,-658 122.7736,-658 122.7736,-622 182.1234,-622 182.1234,-658"/>
<text text-anchor="middle" x="152.4485" y="-637" font-family="Helvetica,sans-Serif" font-size="10.00" fill="#000000">Setters</text>
</g>
<!-- A3&#45;&gt;A5 -->
<g id="edge4" class="edge">
<title>A3&#45;&gt;A5</title>
<path fill="none" stroke="#000000" d="M152.4485,-717.4328C152.4485,-698.6103 152.4485,-674.5245 152.4485,-658.2522"/>
<polygon fill="none" stroke="#000000" points="148.9486,-717.5362 152.4485,-727.5362 155.9486,-717.5362 148.9486,-717.5362"/>
</g>
<!-- A6 -->
<g id="node7" class="node">
<title>A6</title>
<polygon fill="none" stroke="#000000" points="439.1349,-410 329.7621,-410 329.7621,-374 439.1349,-374 439.1349,-410"/>
<text text-anchor="middle" x="384.4485" y="-389" font-family="Helvetica,sans-Serif" font-size="10.00" fill="#000000">ERC1967Upgrade</text>
</g>
<!-- A3&#45;&gt;A6 -->
<g id="edge5" class="edge">
<title>A3&#45;&gt;A6</title>
<path fill="none" stroke="#000000" d="M169.8815,-719.3997C214.9758,-650.592 334.5948,-468.0699 372.6484,-410.0053"/>
<polygon fill="none" stroke="#000000" points="166.8265,-717.676 164.2724,-727.9584 172.6812,-721.513 166.8265,-717.676"/>
</g>
<!-- A7 -->
<g id="node8" class="node">
<title>A7</title>
<polygon fill="none" stroke="#000000" points="102.4485,-540 102.4485,-572 203.4485,-572 203.4485,-540 102.4485,-540"/>
<text text-anchor="start" x="139.8865" y="-553" font-family="Helvetica,sans-Serif" font-size="10.00" fill="#000000">State </text>
<polygon fill="none" stroke="#000000" points="102.4485,-460 102.4485,-540 203.4485,-540 203.4485,-460 102.4485,-460"/>
<text text-anchor="start" x="120.715" y="-521" font-family="Helvetica,sans-Serif" font-size="10.00" fill="#000000"> guardianSets,</text>
<text text-anchor="start" x="112.3765" y="-509" font-family="Helvetica,sans-Serif" font-size="10.00" fill="#000000">guardianSetIndex,</text>
<text text-anchor="start" x="127.382" y="-497" font-family="Helvetica,sans-Serif" font-size="10.00" fill="#000000">sequences,</text>
<text text-anchor="start" x="122.663" y="-485" font-family="Helvetica,sans-Serif" font-size="10.00" fill="#000000">messageFee,</text>
<text text-anchor="start" x="126.278" y="-473" font-family="Helvetica,sans-Serif" font-size="10.00" fill="#000000">evmChainId</text>
</g>
<!-- A5&#45;&gt;A7 -->
<g id="edge6" class="edge">
<title>A5&#45;&gt;A7</title>
<path fill="none" stroke="#000000" d="M152.4485,-611.8929C152.4485,-600.1141 152.4485,-585.979 152.4485,-572.2262"/>
<polygon fill="none" stroke="#000000" points="148.9486,-611.9693 152.4485,-621.9693 155.9486,-611.9694 148.9486,-611.9693"/>
</g>
<!-- A8 -->
<g id="node9" class="node">
<title>A8</title>
<polygon fill="none" stroke="#000000" points="96.8456,-410 .0514,-410 .0514,-374 96.8456,-374 96.8456,-410"/>
<text text-anchor="middle" x="48.4485" y="-389" font-family="Helvetica,sans-Serif" font-size="10.00" fill="#000000">WormholeState</text>
</g>
<!-- A7&#45;&gt;A8 -->
<g id="edge7" class="edge">
<title>A7&#45;&gt;A8</title>
<path fill="none" stroke="#000000" d="M97.5351,-450.5263C85.0417,-435.6304 72.7733,-421.0027 63.6266,-410.097"/>
<polygon fill="none" stroke="#000000" points="97.6058,-450.6106 104.5262,-452.6373 105.3172,-459.8049 98.3967,-457.7782 97.6058,-450.6106"/>
</g>
<!-- A9 -->
<g id="node10" class="node">
<title>A9</title>
<polygon fill="none" stroke="#000000" points="214.0656,-410 114.8314,-410 114.8314,-374 214.0656,-374 214.0656,-410"/>
<text text-anchor="middle" x="164.4485" y="-389" font-family="Helvetica,sans-Serif" font-size="10.00" fill="#000000">Structs.Provider</text>
</g>
<!-- A7&#45;&gt;A9 -->
<g id="edge8" class="edge">
<title>A7&#45;&gt;A9</title>
<path fill="none" stroke="#000000" d="M159.0698,-447.5797C160.4116,-433.7147 161.7115,-420.2825 162.6972,-410.097"/>
<polygon fill="none" stroke="#000000" points="159.0427,-447.8607 162.4461,-454.2182 157.8867,-459.8049 154.4833,-453.4475 159.0427,-447.8607"/>
</g>
<!-- A10 -->
<g id="node11" class="node">
<title>A10</title>
<polygon fill="none" stroke="#000000" points="509.6291,-870 425.2679,-870 425.2679,-834 509.6291,-834 509.6291,-870"/>
<text text-anchor="middle" x="467.4485" y="-849" font-family="Helvetica,sans-Serif" font-size="10.00" fill="#000000">TokenBridge</text>
</g>
<!-- A10&#45;&gt;A2 -->
<g id="edge9" class="edge">
<title>A10&#45;&gt;A2</title>
<path fill="none" stroke="#000000" d="M441.4506,-826.4835C428.617,-813.8876 412.8661,-798.4283 398.6108,-784.437"/>
<polygon fill="none" stroke="#000000" points="439.0478,-829.0294 448.6363,-833.5362 443.9511,-824.0336 439.0478,-829.0294"/>
</g>
<!-- A11 -->
<g id="node12" class="node">
<title>A11</title>
<polygon fill="none" stroke="#000000" points="508.9675,-764 425.9295,-764 425.9295,-728 508.9675,-728 508.9675,-764"/>
<text text-anchor="middle" x="467.4485" y="-743" font-family="Helvetica,sans-Serif" font-size="10.00" fill="#000000">BridgeSetup</text>
</g>
<!-- A10&#45;&gt;A11 -->
<g id="edge10" class="edge">
<title>A10&#45;&gt;A11</title>
<path fill="none" stroke="#000000" d="M467.4485,-821.3105C467.4485,-802.8287 467.4485,-779.919 467.4485,-764.2522"/>
<polygon fill="#000000" stroke="#000000" points="467.4486,-821.5362 471.4485,-827.5362 467.4485,-833.5362 463.4485,-827.5362 467.4486,-821.5362"/>
</g>
<!-- A12 -->
<g id="node13" class="node">
<title>A12</title>
<polygon fill="none" stroke="#000000" points="652.1887,-764 526.7083,-764 526.7083,-728 652.1887,-728 652.1887,-764"/>
<text text-anchor="middle" x="589.4485" y="-743" font-family="Helvetica,sans-Serif" font-size="10.00" fill="#000000">BridgeImplementation</text>
</g>
<!-- A10&#45;&gt;A12 -->
<g id="edge11" class="edge">
<title>A10&#45;&gt;A12</title>
<path fill="none" stroke="#000000" d="M497.6474,-825.7616C519.6238,-806.6674 548.8311,-781.2905 568.3413,-764.339"/>
<polygon fill="#000000" stroke="#000000" points="497.4795,-825.9074 495.5738,-832.8622 488.421,-833.778 490.3268,-826.8232 497.4795,-825.9074"/>
</g>
<!-- A13 -->
<g id="node14" class="node">
<title>A13</title>
<polygon fill="none" stroke="#000000" points="610.8426,-658 554.0544,-658 554.0544,-622 610.8426,-622 610.8426,-658"/>
<text text-anchor="middle" x="582.4485" y="-637" font-family="Helvetica,sans-Serif" font-size="10.00" fill="#000000">Bridge</text>
</g>
<!-- A12&#45;&gt;A13 -->
<g id="edge12" class="edge">
<title>A12&#45;&gt;A13</title>
<path fill="none" stroke="#000000" d="M587.562,-717.4328C586.319,-698.6103 584.7284,-674.5245 583.6538,-658.2522"/>
<polygon fill="none" stroke="#000000" points="584.0778,-717.7886 588.2292,-727.5362 591.0626,-717.3273 584.0778,-717.7886"/>
</g>
<!-- A14 -->
<g id="node15" class="node">
<title>A14</title>
<polygon fill="none" stroke="#000000" points="613.3051,-534 501.5919,-534 501.5919,-498 613.3051,-498 613.3051,-534"/>
<text text-anchor="middle" x="557.4485" y="-513" font-family="Helvetica,sans-Serif" font-size="10.00" fill="#000000">BridgeGovernance</text>
</g>
<!-- A13&#45;&gt;A14 -->
<g id="edge13" class="edge">
<title>A13&#45;&gt;A14</title>
<path fill="none" stroke="#000000" d="M576.8207,-612.0859C572.0064,-588.2072 565.2188,-554.5408 561.0881,-534.0524"/>
<polygon fill="none" stroke="#000000" points="573.4059,-612.8583 578.8133,-621.9693 580.2678,-611.4748 573.4059,-612.8583"/>
</g>
<!-- A14&#45;&gt;A6 -->
<g id="edge16" class="edge">
<title>A14&#45;&gt;A6</title>
<path fill="none" stroke="#000000" d="M523.7584,-491.8522C490.2975,-467.8686 439.7573,-431.6433 409.6345,-410.0524"/>
<polygon fill="none" stroke="#000000" points="522.126,-494.9883 532.2928,-497.9693 526.204,-489.2989 522.126,-494.9883"/>
</g>
<!-- A15 -->
<g id="node16" class="node">
<title>A15</title>
<polygon fill="none" stroke="#000000" points="596.1271,-410 506.7699,-410 506.7699,-374 596.1271,-374 596.1271,-410"/>
<text text-anchor="middle" x="551.4485" y="-389" font-family="Helvetica,sans-Serif" font-size="10.00" fill="#000000">BridgeGetters</text>
</g>
<!-- A14&#45;&gt;A15 -->
<g id="edge14" class="edge">
<title>A14&#45;&gt;A15</title>
<path fill="none" stroke="#000000" d="M556.0822,-487.7641C554.9278,-463.9055 553.3089,-430.4489 552.322,-410.0524"/>
<polygon fill="none" stroke="#000000" points="552.5967,-488.1502 556.576,-497.9693 559.5886,-487.8118 552.5967,-488.1502"/>
</g>
<!-- A16 -->
<g id="node17" class="node">
<title>A16</title>
<polygon fill="none" stroke="#000000" points="702.5175,-410 614.3795,-410 614.3795,-374 702.5175,-374 702.5175,-410"/>
<text text-anchor="middle" x="658.4485" y="-389" font-family="Helvetica,sans-Serif" font-size="10.00" fill="#000000">BridgeSetters</text>
</g>
<!-- A14&#45;&gt;A16 -->
<g id="edge15" class="edge">
<title>A14&#45;&gt;A16</title>
<path fill="none" stroke="#000000" d="M578.6327,-489.9916C598.1512,-466.0284 626.6074,-431.092 643.7445,-410.0524"/>
<polygon fill="none" stroke="#000000" points="575.7364,-488.0054 572.1348,-497.9693 581.1639,-492.4262 575.7364,-488.0054"/>
</g>
<!-- A17 -->
<g id="node18" class="node">
<title>A17</title>
<polygon fill="none" stroke="#000000" points="601.4485,-292 601.4485,-324 716.4485,-324 716.4485,-292 601.4485,-292"/>
<text text-anchor="start" x="631.4395" y="-305" font-family="Helvetica,sans-Serif" font-size="10.00" fill="#000000">BridgeState </text>
<polygon fill="none" stroke="#000000" points="601.4485,-224 601.4485,-292 716.4485,-292 716.4485,-224 601.4485,-224"/>
<text text-anchor="start" x="634.5035" y="-273" font-family="Helvetica,sans-Serif" font-size="10.00" fill="#000000"> wormhole,</text>
<text text-anchor="start" x="611.158" y="-261" font-family="Helvetica,sans-Serif" font-size="10.00" fill="#000000">tokenImplementation,</text>
<text text-anchor="start" x="623.384" y="-249" font-family="Helvetica,sans-Serif" font-size="10.00" fill="#000000">wrappedAssets,</text>
<text text-anchor="start" x="615.877" y="-237" font-family="Helvetica,sans-Serif" font-size="10.00" fill="#000000">outstandingBridged</text>
</g>
<!-- A16&#45;&gt;A17 -->
<g id="edge17" class="edge">
<title>A16&#45;&gt;A17</title>
<path fill="none" stroke="#000000" d="M658.4485,-363.6444C658.4485,-351.7697 658.4485,-337.6026 658.4485,-324.076"/>
<polygon fill="none" stroke="#000000" points="654.9486,-363.8211 658.4485,-373.8211 661.9486,-363.8211 654.9486,-363.8211"/>
</g>
<!-- A18 -->
<g id="node19" class="node">
<title>A18</title>
<polygon fill="none" stroke="#000000" points="720.5806,-174 596.3164,-174 596.3164,-138 720.5806,-138 720.5806,-174"/>
<text text-anchor="middle" x="658.4485" y="-153" font-family="Helvetica,sans-Serif" font-size="10.00" fill="#000000">TokenImplementation</text>
</g>
<!-- A17&#45;&gt;A18 -->
<g id="edge18" class="edge">
<title>A17&#45;&gt;A18</title>
<path fill="none" stroke="#000000" d="M658.4485,-211.8244C658.4485,-197.9991 658.4485,-184.407 658.4485,-174.0964"/>
<polygon fill="#000000" stroke="#000000" points="658.4486,-211.9574 662.4485,-217.9574 658.4485,-223.9574 654.4485,-217.9573 658.4486,-211.9574"/>
</g>
<!-- A19 -->
<g id="node20" class="node">
<title>A19</title>
<polygon fill="none" stroke="#000000" points="605.4485,-56 605.4485,-88 712.4485,-88 712.4485,-56 605.4485,-56"/>
<text text-anchor="start" x="631.9935" y="-69" font-family="Helvetica,sans-Serif" font-size="10.00" fill="#000000">TokenState </text>
<polygon fill="none" stroke="#000000" points="605.4485,0 605.4485,-56 712.4485,-56 712.4485,0 605.4485,0"/>
<text text-anchor="start" x="623.9405" y="-37" font-family="Helvetica,sans-Serif" font-size="10.00" fill="#000000"> nativeContract,</text>
<text text-anchor="start" x="621.1605" y="-25" font-family="Helvetica,sans-Serif" font-size="10.00" fill="#000000">owner, balances,</text>
<text text-anchor="start" x="615.3265" y="-13" font-family="Helvetica,sans-Serif" font-size="10.00" fill="#000000">allowances, chainId</text>
</g>
<!-- A18&#45;&gt;A19 -->
<g id="edge19" class="edge">
<title>A18&#45;&gt;A19</title>
<path fill="none" stroke="#000000" d="M658.4485,-127.2814C658.4485,-115.3869 658.4485,-101.3194 658.4485,-88.1649"/>
<polygon fill="none" stroke="#000000" points="654.9486,-127.5054 658.4485,-137.5055 661.9486,-127.5055 654.9486,-127.5054"/>
</g>
</g>
</svg>
